<svg width="100" height="38" viewBox="0 0 100 38" fill="none" xmlns="http://www.w3.org/2000/svg">
<rect x="3.25098" y="4.40625" width="37.4025" height="33.0393" rx="6.16733" fill="#6C5FBC"/>
<rect x="0.891536" y="0.891536" width="35.6194" height="31.2562" rx="5.2758" fill="#DBD9EE" stroke="#6C5FBC" stroke-width="1.78307"/>
<path d="M28.8691 10.6641L8.60349 10.5745" stroke="#6C5FBC" stroke-width="1.84442" stroke-linecap="round" stroke-linejoin="round"/>
<path d="M28.859 14.722L24.3502 14.6993C22.4852 14.6899 20.9762 12.8653 20.9822 10.6269C20.9882 8.38861 22.507 6.57923 24.372 6.58862L28.8809 6.61133" stroke="#6C5FBC" stroke-width="1.84442" stroke-linecap="round" stroke-linejoin="round"/>
<path d="M15.364 23.6457L9.47436 23.5765C8.99178 23.5741 8.58725 23.0983 8.57784 22.5192L8.53808 20.9924C8.52874 20.387 8.93593 19.8758 9.44044 19.8783L15.2642 19.9471L15.364 23.6457Z" stroke="#6C5FBC" stroke-width="1.84442" stroke-linecap="round" stroke-linejoin="round"/>
<path d="M24.6134 25.8454L16.2888 25.7377C15.8062 25.7353 15.4017 25.2596 15.3923 24.6807L15.2844 19.9309L28.8078 20.1042L28.8171 20.7094C28.8862 23.5778 26.9934 25.8837 24.6134 25.8454Z" stroke="#6C5FBC" stroke-width="1.84442" stroke-linecap="round" stroke-linejoin="round"/>
<path d="M61.331 19.5719C61.331 19.9466 61.306 20.2839 61.256 20.5838H53.6669C53.7294 21.3333 53.9917 21.9204 54.4539 22.3452C54.9162 22.7699 55.4846 22.9823 56.1592 22.9823C57.1336 22.9823 57.8269 22.5638 58.2391 21.7268H61.0686C60.7688 22.7262 60.1942 23.5507 59.3447 24.2003C58.4952 24.8374 57.4521 25.156 56.2154 25.156C55.216 25.156 54.3165 24.9373 53.517 24.5001C52.73 24.0504 52.1116 23.4195 51.6619 22.6075C51.2247 21.7955 51.0061 20.8586 51.0061 19.7967C51.0061 18.7224 51.2247 17.7792 51.6619 16.9672C52.0991 16.1552 52.7113 15.5306 53.4983 15.0934C54.2853 14.6561 55.191 14.4375 56.2154 14.4375C57.2023 14.4375 58.083 14.6499 58.8575 15.0746C59.6445 15.4994 60.2504 16.1053 60.6751 16.8923C61.1124 17.6668 61.331 18.56 61.331 19.5719ZM58.6139 18.8223C58.6014 18.1478 58.3578 17.6106 57.8831 17.2108C57.4084 16.7986 56.8275 16.5925 56.1404 16.5925C55.4908 16.5925 54.9411 16.7923 54.4914 17.1921C54.0542 17.5794 53.7856 18.1228 53.6857 18.8223H58.6139ZM62.5712 19.7593C62.5712 18.7099 62.7774 17.7792 63.1896 16.9672C63.6143 16.1552 64.1827 15.5306 64.8948 15.0934C65.6194 14.6561 66.4251 14.4375 67.3121 14.4375C68.0866 14.4375 68.7612 14.5937 69.3358 14.906C69.923 15.2183 70.3914 15.6118 70.7412 16.0865V14.6062H73.3833V24.9873H70.7412V23.4695C70.4039 23.9567 69.9355 24.3627 69.3358 24.6875C68.7487 24.9998 68.0679 25.156 67.2933 25.156C66.4189 25.156 65.6194 24.9311 64.8948 24.4814C64.1827 24.0316 63.6143 23.4008 63.1896 22.5888C62.7774 21.7643 62.5712 20.8211 62.5712 19.7593ZM70.7412 19.7967C70.7412 19.1596 70.6163 18.6162 70.3664 18.1665C70.1166 17.7043 69.7793 17.3545 69.3546 17.1171C68.9298 16.8673 68.4739 16.7424 67.9867 16.7424C67.4995 16.7424 67.0497 16.861 66.6375 17.0984C66.2252 17.3358 65.8879 17.6855 65.6256 18.1478C65.3758 18.5975 65.2508 19.1346 65.2508 19.7593C65.2508 20.3839 65.3758 20.9335 65.6256 21.4083C65.8879 21.8705 66.2252 22.2265 66.6375 22.4763C67.0622 22.7262 67.5119 22.8511 67.9867 22.8511C68.4739 22.8511 68.9298 22.7324 69.3546 22.4951C69.7793 22.2452 70.1166 21.8955 70.3664 21.4457C70.6163 20.9835 70.7412 20.4339 70.7412 19.7967ZM78.9999 16.7611V21.783C78.9999 22.1328 79.0811 22.3889 79.2435 22.5513C79.4184 22.7012 79.7057 22.7762 80.1055 22.7762H81.3235V24.9873H79.6745C77.4634 24.9873 76.3578 23.913 76.3578 21.7643V16.7611H75.121V14.6062H76.3578V12.039H78.9999V14.6062H81.3235V16.7611H78.9999ZM85.8338 11.1208V24.9873H83.2104V11.1208H85.8338ZM98.3571 14.6062L91.9298 29.8968H89.1377L91.3864 24.725L87.2264 14.6062H90.1683L92.848 21.858L95.565 14.6062H98.3571Z" fill="#6C5FBC"/>
</svg>
